<mxfile host="app.diagrams.net" modified="2022-03-14T02:56:43.368Z" agent="5.0 (Windows NT 10.0; Win64; x64) AppleWebKit/537.36 (KHTML, like Gecko) Chrome/99.0.4844.51 Safari/537.36" etag="Wy68BIm91jCA-w48BAed" version="17.1.0" type="github">
  <diagram id="prtHgNgQTEPvFCAcTncT" name="Page-1">
    <mxGraphModel dx="1117" dy="623" grid="1" gridSize="10" guides="1" tooltips="1" connect="1" arrows="1" fold="1" page="1" pageScale="1" pageWidth="827" pageHeight="1169" math="0" shadow="0">
      <root>
        <mxCell id="0" />
        <mxCell id="1" parent="0" />
        <mxCell id="YJeK3eodqo3O1_8G_3Jh-46" value="" style="rounded=1;whiteSpace=wrap;html=1;fillColor=#33FF99;" parent="1" vertex="1">
          <mxGeometry x="518" y="220" width="772" height="460" as="geometry" />
        </mxCell>
        <mxCell id="YJeK3eodqo3O1_8G_3Jh-37" value="" style="rounded=1;whiteSpace=wrap;html=1;fillColor=#33FF33;" parent="1" vertex="1">
          <mxGeometry x="530" y="233" width="670" height="387" as="geometry" />
        </mxCell>
        <mxCell id="YJeK3eodqo3O1_8G_3Jh-31" value="" style="rounded=1;whiteSpace=wrap;html=1;fillColor=#CCFF99;" parent="1" vertex="1">
          <mxGeometry x="540" y="240" width="570" height="320" as="geometry" />
        </mxCell>
        <mxCell id="YJeK3eodqo3O1_8G_3Jh-12" value="" style="rounded=1;whiteSpace=wrap;html=1;fillColor=#FFFF99;" parent="1" vertex="1">
          <mxGeometry x="550" y="255" width="470" height="255" as="geometry" />
        </mxCell>
        <mxCell id="YJeK3eodqo3O1_8G_3Jh-13" value="" style="rounded=1;whiteSpace=wrap;html=1;fillColor=#FFE6CC;" parent="1" vertex="1">
          <mxGeometry x="560" y="264" width="350" height="186" as="geometry" />
        </mxCell>
        <mxCell id="YJeK3eodqo3O1_8G_3Jh-14" value="计算机基础" style="text;html=1;strokeColor=none;fillColor=none;align=center;verticalAlign=middle;whiteSpace=wrap;rounded=0;" parent="1" vertex="1">
          <mxGeometry x="599" y="413" width="65" height="30" as="geometry" />
        </mxCell>
        <mxCell id="YJeK3eodqo3O1_8G_3Jh-15" value="" style="rounded=1;whiteSpace=wrap;html=1;" parent="1" vertex="1">
          <mxGeometry x="570" y="274" width="230" height="130" as="geometry" />
        </mxCell>
        <mxCell id="YJeK3eodqo3O1_8G_3Jh-16" value="基础" style="rounded=1;whiteSpace=wrap;html=1;fillColor=#f5f5f5;fontColor=#333333;strokeColor=#FF0000;" parent="1" vertex="1">
          <mxGeometry x="600" y="294" width="70" height="30" as="geometry" />
        </mxCell>
        <mxCell id="YJeK3eodqo3O1_8G_3Jh-17" value="容器" style="rounded=1;whiteSpace=wrap;html=1;fillColor=#f5f5f5;fontColor=#333333;strokeColor=#FF0000;" parent="1" vertex="1">
          <mxGeometry x="600" y="329" width="70" height="30" as="geometry" />
        </mxCell>
        <mxCell id="YJeK3eodqo3O1_8G_3Jh-18" value="多线程" style="rounded=1;whiteSpace=wrap;html=1;fillColor=#f5f5f5;fontColor=#333333;strokeColor=#FF0000;" parent="1" vertex="1">
          <mxGeometry x="701" y="294" width="70" height="30" as="geometry" />
        </mxCell>
        <mxCell id="YJeK3eodqo3O1_8G_3Jh-19" value="JVM" style="rounded=1;whiteSpace=wrap;html=1;fillColor=#f5f5f5;fontColor=#333333;strokeColor=#FF0000;" parent="1" vertex="1">
          <mxGeometry x="700" y="329" width="70" height="30" as="geometry" />
        </mxCell>
        <mxCell id="YJeK3eodqo3O1_8G_3Jh-20" value="Java基础" style="text;html=1;strokeColor=none;fillColor=none;align=center;verticalAlign=middle;whiteSpace=wrap;rounded=0;" parent="1" vertex="1">
          <mxGeometry x="604" y="366" width="60" height="30" as="geometry" />
        </mxCell>
        <mxCell id="YJeK3eodqo3O1_8G_3Jh-21" value="网络" style="rounded=1;whiteSpace=wrap;html=1;fillColor=#dae8fc;strokeColor=#FF0000;" parent="1" vertex="1">
          <mxGeometry x="822" y="293" width="70" height="30" as="geometry" />
        </mxCell>
        <mxCell id="YJeK3eodqo3O1_8G_3Jh-22" value="系统" style="rounded=1;whiteSpace=wrap;html=1;fillColor=#dae8fc;strokeColor=#FF0000;" parent="1" vertex="1">
          <mxGeometry x="822" y="330" width="70" height="30" as="geometry" />
        </mxCell>
        <mxCell id="YJeK3eodqo3O1_8G_3Jh-23" value="数据库" style="rounded=1;whiteSpace=wrap;html=1;fillColor=#dae8fc;strokeColor=#6c8ebf;" parent="1" vertex="1">
          <mxGeometry x="822" y="367" width="70" height="30" as="geometry" />
        </mxCell>
        <mxCell id="YJeK3eodqo3O1_8G_3Jh-24" value="SSM" style="text;html=1;strokeColor=none;fillColor=none;align=center;verticalAlign=middle;whiteSpace=wrap;rounded=0;" parent="1" vertex="1">
          <mxGeometry x="599" y="464" width="65" height="30" as="geometry" />
        </mxCell>
        <mxCell id="YJeK3eodqo3O1_8G_3Jh-26" value="SpringMVC" style="rounded=1;whiteSpace=wrap;html=1;fillColor=#d5e8d4;strokeColor=#82b366;" parent="1" vertex="1">
          <mxGeometry x="931" y="344" width="70" height="30" as="geometry" />
        </mxCell>
        <mxCell id="YJeK3eodqo3O1_8G_3Jh-27" value="MyBatis" style="rounded=1;whiteSpace=wrap;html=1;fillColor=#d5e8d4;strokeColor=#82b366;" parent="1" vertex="1">
          <mxGeometry x="931" y="394" width="70" height="30" as="geometry" />
        </mxCell>
        <mxCell id="YJeK3eodqo3O1_8G_3Jh-28" value="Spring" style="rounded=1;whiteSpace=wrap;html=1;fillColor=#d5e8d4;strokeColor=#82b366;" parent="1" vertex="1">
          <mxGeometry x="931" y="294" width="70" height="30" as="geometry" />
        </mxCell>
        <mxCell id="YJeK3eodqo3O1_8G_3Jh-29" value="社区" style="rounded=1;whiteSpace=wrap;html=1;" parent="1" vertex="1">
          <mxGeometry x="740" y="464" width="70" height="30" as="geometry" />
        </mxCell>
        <mxCell id="YJeK3eodqo3O1_8G_3Jh-30" value="秒杀" style="rounded=1;whiteSpace=wrap;html=1;" parent="1" vertex="1">
          <mxGeometry x="822" y="464" width="70" height="30" as="geometry" />
        </mxCell>
        <mxCell id="YJeK3eodqo3O1_8G_3Jh-32" value="SpringCloud" style="text;html=1;strokeColor=none;fillColor=none;align=center;verticalAlign=middle;whiteSpace=wrap;rounded=0;" parent="1" vertex="1">
          <mxGeometry x="601" y="519" width="65" height="30" as="geometry" />
        </mxCell>
        <mxCell id="YJeK3eodqo3O1_8G_3Jh-33" value="ES" style="rounded=1;whiteSpace=wrap;html=1;fillColor=#f8cecc;strokeColor=#b85450;" parent="1" vertex="1">
          <mxGeometry x="1120" y="295" width="70" height="30" as="geometry" />
        </mxCell>
        <mxCell id="YJeK3eodqo3O1_8G_3Jh-34" value="Nacos" style="rounded=1;whiteSpace=wrap;html=1;fillColor=#ffe6cc;strokeColor=#d79b00;" parent="1" vertex="1">
          <mxGeometry x="1030" y="342" width="70" height="30" as="geometry" />
        </mxCell>
        <mxCell id="YJeK3eodqo3O1_8G_3Jh-35" value="Sentitial" style="rounded=1;whiteSpace=wrap;html=1;fillColor=#ffe6cc;strokeColor=#d79b00;" parent="1" vertex="1">
          <mxGeometry x="1030" y="393" width="70" height="30" as="geometry" />
        </mxCell>
        <mxCell id="YJeK3eodqo3O1_8G_3Jh-38" value="大数据" style="text;html=1;strokeColor=none;fillColor=none;align=center;verticalAlign=middle;whiteSpace=wrap;rounded=0;" parent="1" vertex="1">
          <mxGeometry x="599" y="577" width="65" height="30" as="geometry" />
        </mxCell>
        <mxCell id="YJeK3eodqo3O1_8G_3Jh-39" value="Kafka" style="rounded=1;whiteSpace=wrap;html=1;fillColor=#ffe6cc;strokeColor=#d79b00;" parent="1" vertex="1">
          <mxGeometry x="1032" y="294" width="70" height="30" as="geometry" />
        </mxCell>
        <mxCell id="YJeK3eodqo3O1_8G_3Jh-40" value="Flink" style="rounded=1;whiteSpace=wrap;html=1;fillColor=#f8cecc;strokeColor=#b85450;" parent="1" vertex="1">
          <mxGeometry x="1121" y="344" width="70" height="30" as="geometry" />
        </mxCell>
        <mxCell id="YJeK3eodqo3O1_8G_3Jh-41" value="数据结构与算法" style="rounded=1;whiteSpace=wrap;html=1;fillColor=#dae8fc;strokeColor=#6c8ebf;" parent="1" vertex="1">
          <mxGeometry x="698" y="413" width="102" height="30" as="geometry" />
        </mxCell>
        <mxCell id="YJeK3eodqo3O1_8G_3Jh-44" value="RPC" style="rounded=1;whiteSpace=wrap;html=1;" parent="1" vertex="1">
          <mxGeometry x="740" y="520" width="70" height="30" as="geometry" />
        </mxCell>
        <mxCell id="YJeK3eodqo3O1_8G_3Jh-45" value="gulimall" style="rounded=1;whiteSpace=wrap;html=1;" parent="1" vertex="1">
          <mxGeometry x="823" y="520" width="70" height="30" as="geometry" />
        </mxCell>
        <mxCell id="YJeK3eodqo3O1_8G_3Jh-47" value="推荐系统" style="text;html=1;strokeColor=none;fillColor=none;align=center;verticalAlign=middle;whiteSpace=wrap;rounded=0;" parent="1" vertex="1">
          <mxGeometry x="599" y="638" width="65" height="30" as="geometry" />
        </mxCell>
        <mxCell id="YJeK3eodqo3O1_8G_3Jh-48" value="Scala" style="rounded=1;whiteSpace=wrap;html=1;fillColor=#e1d5e7;strokeColor=#9673a6;" parent="1" vertex="1">
          <mxGeometry x="1212" y="294" width="70" height="30" as="geometry" />
        </mxCell>
        <mxCell id="AX0DvxBwMDPVRY_ftV9f-2" value="MySQL" style="rounded=1;whiteSpace=wrap;html=1;fillColor=#dae8fc;strokeColor=#6c8ebf;" vertex="1" parent="1">
          <mxGeometry x="822" y="397" width="70" height="23" as="geometry" />
        </mxCell>
        <mxCell id="AX0DvxBwMDPVRY_ftV9f-3" value="Redis" style="rounded=1;whiteSpace=wrap;html=1;fillColor=#dae8fc;strokeColor=#6c8ebf;" vertex="1" parent="1">
          <mxGeometry x="822" y="420" width="70" height="20" as="geometry" />
        </mxCell>
        <mxCell id="AX0DvxBwMDPVRY_ftV9f-4" value="Python" style="rounded=1;whiteSpace=wrap;html=1;fillColor=#e1d5e7;strokeColor=#9673a6;" vertex="1" parent="1">
          <mxGeometry x="1212" y="344" width="70" height="30" as="geometry" />
        </mxCell>
      </root>
    </mxGraphModel>
  </diagram>
</mxfile>
